<?xml version="1.0" encoding="utf-8" ?>
<svg xmlns="http://www.w3.org/2000/svg" xmlns:xlink="http://www.w3.org/1999/xlink" width="7.5" height="13.125" viewBox="0 0 7.5 13.125">
	<path d="M4.96209 -0.662912C5.3282 -1.02903 5.9218 -1.02903 6.28791 -0.662913C6.65403 -0.296799 6.65403 0.296799 6.28791 0.662912L4.96209 -0.662912ZM6.28791 10.5871L1.32582 5.625L6.28791 0.662913L4.96209 -0.662913L-0.662913 4.96209Q-0.794774 5.09395 -0.866137 5.26623Q-0.9375 5.43852 -0.9375 5.625Q-0.9375 5.81148 -0.866137 5.98377Q-0.794774 6.15605 -0.662913 6.28791L4.96209 11.9129C5.3282 12.279 5.9218 12.279 6.28791 11.9129C6.65403 11.5468 6.65403 10.9532 6.28791 10.5871Z" fill-rule="evenodd" transform="matrix(1 0 0 1 0.9375 0.9375)" fill="rgb(74, 73, 71)"/>
</svg>
